<?xml version="1.0" encoding="utf-8"?>
<!-- Generator: Adobe Illustrator 26.4.1, SVG Export Plug-In . SVG Version: 6.00 Build 0)  -->
<svg version="1.1" id="Layer_1" xmlns="http://www.w3.org/2000/svg" xmlns:xlink="http://www.w3.org/1999/xlink" x="0px" y="0px"
	 viewBox="0 0 158.09 158.05" style="enable-background:new 0 0 158.09 158.05;" xml:space="preserve">
<style type="text/css">
	.st0{fill:#F7931E;}
</style>
<g>
	<g>
		<path class="st0" d="M44.75,15c-0.39,0.21-0.8,0.25-1.23,0.12c-0.42-0.13-0.74-0.39-0.95-0.78c-0.21-0.39-0.25-0.8-0.13-1.23
			c0.13-0.43,0.39-0.75,0.78-0.96c0.39-0.21,0.8-0.25,1.23-0.12s0.75,0.4,0.96,0.79s0.25,0.8,0.12,1.23
			C45.4,14.47,45.14,14.79,44.75,15z"/>
		<path class="st0" d="M61.96,3.05l3.82,5.51l-0.92-4.19c-0.14-0.63-0.33-0.92-0.58-0.87c-0.07,0.01-0.16,0.05-0.28,0.11
			c-0.12,0.06-0.21,0.1-0.28,0.11c-0.2,0.04-0.39-0.01-0.56-0.16c-0.18-0.15-0.29-0.36-0.35-0.62c-0.07-0.31-0.03-0.58,0.1-0.81
			c0.14-0.23,0.35-0.37,0.65-0.44c0.15-0.03,0.42-0.07,0.79-0.1c0.38-0.03,0.71-0.08,0.99-0.14c0.26-0.06,0.55-0.14,0.88-0.25
			c0.5-0.17,0.81-0.27,0.93-0.29c0.3-0.07,0.57-0.02,0.8,0.12s0.38,0.38,0.45,0.69c0.06,0.26,0.03,0.5-0.08,0.71
			c-0.11,0.21-0.28,0.34-0.49,0.39c-0.09,0.02-0.2,0.03-0.35,0.03c-0.15,0-0.26,0-0.34,0.02c-0.19,0.04-0.29,0.19-0.29,0.44
			c0,0.1,0.04,0.3,0.1,0.6l1.27,5.76c0.14,0.62-0.05,0.99-0.56,1.1c-0.09,0.02-0.24,0.04-0.44,0.07s-0.34,0.05-0.44,0.07
			c-0.01,0-0.24,0.06-0.69,0.18l-0.31,0.07c-0.27,0.06-0.49,0.04-0.65-0.06c-0.09-0.06-0.24-0.24-0.46-0.54l-4.1-5.63l0.94,4.28
			c0.14,0.64,0.33,0.94,0.58,0.88c0.07-0.01,0.16-0.05,0.29-0.12s0.23-0.1,0.29-0.12c0.2-0.04,0.39,0.01,0.56,0.16
			c0.18,0.15,0.29,0.36,0.35,0.62c0.15,0.69-0.1,1.11-0.76,1.25c-0.19,0.04-0.51,0.08-0.95,0.12c-0.3,0.03-0.6,0.07-0.89,0.14
			c-0.25,0.05-0.57,0.15-0.98,0.29c-0.4,0.14-0.66,0.22-0.78,0.25c-0.69,0.15-1.11-0.12-1.26-0.81c-0.06-0.26-0.03-0.5,0.07-0.71
			c0.11-0.21,0.27-0.34,0.49-0.39c0.08-0.02,0.2-0.03,0.36-0.03c0.15,0,0.27-0.01,0.34-0.02c0.25-0.05,0.31-0.4,0.17-1.05
			l-0.86-3.92c-0.14-0.63-0.34-0.92-0.59-0.87c-0.08,0.02-0.18,0.06-0.32,0.12c-0.14,0.07-0.25,0.11-0.34,0.12
			c-0.22,0.05-0.42,0-0.6-0.15c-0.19-0.15-0.31-0.35-0.37-0.62c-0.07-0.31-0.03-0.58,0.12-0.81c0.15-0.23,0.37-0.38,0.67-0.44
			C57.32,3.07,57.61,3.03,58,3c0.39-0.04,0.69-0.08,0.91-0.12c0.18-0.04,0.48-0.12,0.91-0.26c0.2-0.05,0.42-0.12,0.67-0.21
			c0.11-0.04,0.23-0.08,0.36-0.11c0.25-0.06,0.47,0,0.66,0.17C61.58,2.53,61.73,2.72,61.96,3.05z"/>
		<path class="st0" d="M78.68,10.19c-1.47,0.01-2.61-0.43-3.41-1.32c-0.81-0.88-1.21-2.14-1.22-3.78c-0.01-1.58,0.39-2.82,1.18-3.72
			c0.79-0.91,1.89-1.36,3.29-1.37c1.47-0.01,2.62,0.43,3.44,1.3c0.83,0.88,1.24,2.1,1.25,3.68c0.01,1.63-0.39,2.91-1.18,3.83
			C81.23,9.73,80.12,10.19,78.68,10.19z M78.63,2.03c-1.26,0-1.88,1.03-1.87,3.08c0,0.97,0.13,1.7,0.37,2.17
			c0.3,0.59,0.81,0.88,1.51,0.88c1.25,0,1.87-1,1.86-3c0-1.1-0.16-1.9-0.45-2.4C79.75,2.27,79.27,2.03,78.63,2.03z"/>
		<path class="st0" d="M101.12,6.2l-0.31,0.96l2.9,0.94l0.31-0.96c0.09-0.29,0.14-0.44,0.14-0.47c0.03-0.2-0.02-0.33-0.17-0.38
			c-0.06-0.02-0.12-0.03-0.17-0.04l-0.12-0.04c-0.4-0.13-0.52-0.48-0.33-1.04c0.1-0.3,0.26-0.52,0.49-0.65
			c0.23-0.13,0.48-0.15,0.76-0.06c0.18,0.06,0.45,0.17,0.8,0.34c0.35,0.17,0.62,0.28,0.81,0.34c0.24,0.08,0.54,0.16,0.91,0.24
			c0.65,0.14,0.96,0.21,0.96,0.2c0.29,0.1,0.5,0.27,0.62,0.51c0.12,0.25,0.13,0.52,0.03,0.83c-0.08,0.26-0.23,0.45-0.42,0.58
			c-0.2,0.13-0.41,0.16-0.62,0.09c-0.08-0.03-0.19-0.08-0.32-0.16c-0.13-0.08-0.23-0.13-0.31-0.15c-0.18-0.06-0.34,0.02-0.47,0.23
			c-0.05,0.09-0.12,0.28-0.22,0.57l-1.24,3.82c-0.2,0.63-0.18,0.98,0.07,1.06c0.07,0.03,0.19,0.04,0.35,0.06
			c0.16,0.02,0.27,0.04,0.35,0.06c0.21,0.07,0.36,0.21,0.45,0.44c0.09,0.22,0.09,0.46,0.01,0.72c-0.1,0.3-0.27,0.52-0.51,0.65
			s-0.51,0.15-0.8,0.05c-0.01,0-0.03-0.01-0.06-0.02c-0.02-0.02-0.03-0.03-0.05-0.03c-0.18-0.06-0.45-0.17-0.81-0.34
			c-0.35-0.17-0.62-0.28-0.82-0.34c-0.36-0.12-0.67-0.2-0.93-0.24c-0.4-0.07-0.67-0.13-0.83-0.18c-0.27-0.09-0.45-0.25-0.56-0.5
			c-0.11-0.24-0.11-0.52-0.02-0.82c0.18-0.56,0.47-0.78,0.88-0.65c0.06,0.02,0.09,0.04,0.12,0.05c0.03,0.01,0.06,0.02,0.1,0.03
			c0.03,0.02,0.05,0.03,0.06,0.04c0.15,0.05,0.27-0.03,0.36-0.22c0.04-0.1,0.1-0.25,0.17-0.46l0.44-1.37l-2.9-0.94l-0.44,1.37
			c-0.1,0.31-0.15,0.47-0.16,0.48c-0.04,0.2,0.03,0.33,0.18,0.38c0.01,0,0.03,0.01,0.07,0.01c0.04,0.01,0.06,0.02,0.08,0.03
			c0.03,0,0.07,0.01,0.13,0.03c0.41,0.13,0.52,0.48,0.33,1.04c-0.1,0.3-0.26,0.52-0.5,0.65c-0.23,0.13-0.48,0.16-0.75,0.07
			c-0.17-0.05-0.41-0.16-0.73-0.31c-0.32-0.15-0.57-0.26-0.74-0.32c-0.4-0.13-0.75-0.22-1.05-0.28c-0.46-0.09-0.78-0.16-0.95-0.22
			c-0.29-0.09-0.5-0.26-0.62-0.51c-0.12-0.24-0.13-0.51-0.03-0.82c0.08-0.26,0.23-0.45,0.43-0.58c0.2-0.13,0.41-0.16,0.62-0.09
			c0.07,0.02,0.18,0.07,0.31,0.15c0.13,0.08,0.24,0.13,0.31,0.15c0.25,0.08,0.47-0.19,0.68-0.82l1.24-3.82
			c0.2-0.62,0.18-0.96-0.07-1.04c-0.07-0.02-0.19-0.04-0.34-0.06s-0.27-0.03-0.35-0.06c-0.21-0.07-0.36-0.21-0.45-0.43
			s-0.09-0.46,0-0.72c0.1-0.3,0.27-0.52,0.51-0.64s0.51-0.14,0.81-0.04c0.09,0.03,0.38,0.15,0.86,0.37
			c0.32,0.14,0.64,0.27,0.97,0.38c0.29,0.09,0.56,0.16,0.82,0.21c0.39,0.06,0.66,0.12,0.81,0.17c0.28,0.09,0.47,0.26,0.57,0.5
			c0.1,0.24,0.11,0.52,0.01,0.82c-0.18,0.55-0.47,0.76-0.88,0.63l-0.12-0.04c-0.03-0.02-0.08-0.04-0.15-0.06
			c-0.16-0.05-0.28,0.02-0.37,0.2C101.27,5.73,101.22,5.89,101.12,6.2z"/>
		<path class="st0" d="M117.28,17.88l-1.65-1c-0.47-0.28-0.88-0.15-1.22,0.42c-0.08,0.13-0.05,0.24,0.09,0.33
			c0.04,0.02,0.11,0.06,0.2,0.09c0.09,0.04,0.16,0.07,0.2,0.09c0.31,0.19,0.31,0.52,0.02,1.01c-0.16,0.27-0.36,0.44-0.6,0.52
			c-0.24,0.08-0.48,0.05-0.71-0.09c-0.12-0.07-0.35-0.25-0.72-0.55c-0.16-0.13-0.4-0.29-0.71-0.48c-0.34-0.2-0.61-0.35-0.82-0.44
			c-0.47-0.21-0.75-0.33-0.83-0.38c-0.26-0.16-0.42-0.36-0.48-0.61c-0.07-0.25-0.02-0.51,0.13-0.77c0.35-0.58,0.74-0.74,1.18-0.47
			c0.05,0.03,0.12,0.08,0.22,0.16c0.1,0.08,0.17,0.13,0.22,0.16c0.16,0.09,0.34,0.08,0.54-0.03c0.06-0.03,0.21-0.15,0.45-0.35
			l4.66-3.85c0.53-0.43,0.97-0.65,1.3-0.64c0.24,0.02,0.67,0.21,1.29,0.59c0.7,0.42,1.11,0.73,1.24,0.92c0.13,0.2,0.13,0.53,0.01,1
			l-1.6,6.25c-0.13,0.5-0.11,0.79,0.05,0.89c0.05,0.03,0.14,0.07,0.28,0.12l0.14,0.08c0.46,0.28,0.53,0.69,0.2,1.24
			c-0.17,0.27-0.38,0.44-0.65,0.51c-0.26,0.07-0.53,0.02-0.79-0.14c-0.12-0.07-0.26-0.17-0.44-0.31c-0.21-0.18-0.35-0.29-0.42-0.34
			c-0.17-0.13-0.4-0.28-0.69-0.45c-0.31-0.19-0.53-0.31-0.65-0.36c-0.46-0.19-0.75-0.31-0.86-0.38c-0.22-0.13-0.36-0.33-0.4-0.59
			c-0.04-0.26,0.01-0.51,0.17-0.77c0.29-0.49,0.6-0.64,0.91-0.45c0.04,0.03,0.1,0.07,0.18,0.13c0.07,0.06,0.13,0.11,0.17,0.13
			c0.16,0.1,0.29,0.06,0.39-0.12c0.13-0.22,0.2-0.44,0.2-0.64C117.49,18.12,117.42,17.97,117.28,17.88z M118.24,15.87l0.94-2.91
			l-2.37,2.18c-0.02,0.02-0.04,0.05-0.06,0.08c-0.06,0.1,0.01,0.21,0.22,0.34l0.77,0.46c0.21,0.13,0.36,0.14,0.43,0.02
			C118.17,16.06,118.19,16,118.24,15.87z"/>
		<path class="st0" d="M130.38,22.7l-0.49,1.68l1.7-0.55c0.32-0.11,0.52-0.19,0.58-0.26c0.07-0.08,0.07-0.22,0-0.43
			c-0.09-0.27-0.03-0.53,0.2-0.77c0.47-0.5,0.96-0.52,1.47-0.04c0.16,0.15,0.31,0.31,0.44,0.47c0.3,0.37,0.51,0.62,0.63,0.73
			c0.13,0.12,0.33,0.27,0.61,0.46c0.28,0.19,0.48,0.34,0.6,0.46c0.23,0.21,0.34,0.45,0.35,0.72c0.01,0.27-0.1,0.53-0.33,0.77
			c-0.18,0.2-0.39,0.31-0.61,0.35c-0.22,0.04-0.41-0.02-0.57-0.16c-0.06-0.06-0.15-0.16-0.25-0.31c-0.07-0.11-0.13-0.18-0.18-0.23
			c-0.1-0.09-0.2-0.14-0.29-0.13c-0.1,0-0.34,0.06-0.72,0.16l-3.49,0.94c-0.39,0.11-0.73,0.31-1.03,0.59l-0.29,0.29
			c-0.32,0.31-0.36,0.58-0.12,0.8c0.08,0.07,0.2,0.16,0.36,0.27c0.16,0.11,0.28,0.19,0.35,0.26c0.17,0.16,0.25,0.36,0.23,0.59
			c-0.02,0.24-0.12,0.46-0.32,0.67c-0.22,0.23-0.46,0.35-0.73,0.35c-0.27,0-0.52-0.11-0.76-0.33c-0.18-0.17-0.43-0.43-0.76-0.8
			s-0.58-0.64-0.77-0.81c-0.2-0.18-0.51-0.44-0.93-0.77c-0.42-0.33-0.73-0.58-0.93-0.77c-0.23-0.22-0.36-0.46-0.36-0.73
			c-0.01-0.27,0.09-0.52,0.3-0.75c0.44-0.47,0.86-0.52,1.27-0.15c0.07,0.07,0.17,0.18,0.29,0.34c0.12,0.16,0.22,0.27,0.29,0.34
			c0.21,0.19,0.46,0.12,0.76-0.2l0.28-0.3c0.2-0.22,0.35-0.56,0.45-1.03l0.83-4.04c0.05-0.24,0.01-0.43-0.14-0.57
			c-0.04-0.04-0.12-0.09-0.23-0.16c-0.15-0.08-0.26-0.16-0.33-0.22c-0.34-0.32-0.31-0.69,0.09-1.12c0.51-0.55,1.02-0.6,1.51-0.14
			c0.13,0.12,0.31,0.32,0.56,0.62c0.24,0.29,0.44,0.51,0.59,0.65c0.2,0.18,0.47,0.39,0.8,0.63c0.22,0.16,0.4,0.29,0.52,0.4
			c0.48,0.45,0.48,0.94-0.02,1.47c-0.21,0.22-0.43,0.29-0.67,0.23c-0.15-0.04-0.26-0.06-0.32-0.08c-0.06-0.02-0.12,0-0.16,0.05
			l-0.03,0.03c-0.06,0.06-0.1,0.13-0.12,0.21C130.47,22.38,130.44,22.5,130.38,22.7z"/>
		<path class="st0" d="M142.11,43.58c-0.12-0.23-0.31-0.27-0.57-0.13l-0.4,0.23c-0.29,0.16-0.36,0.37-0.21,0.62
			c0.06,0.1,0.14,0.22,0.25,0.36c0.14,0.17,0.24,0.31,0.31,0.44c0.12,0.21,0.14,0.42,0.06,0.63c-0.08,0.21-0.25,0.39-0.5,0.53
			c-0.28,0.16-0.55,0.2-0.81,0.13c-0.26-0.07-0.47-0.24-0.62-0.51c-0.13-0.24-0.31-0.6-0.53-1.08c-0.22-0.49-0.4-0.85-0.53-1.08
			c-0.2-0.36-0.39-0.66-0.55-0.89l-0.41-0.58c-0.11-0.16-0.18-0.27-0.22-0.33c-0.15-0.27-0.19-0.53-0.12-0.79
			c0.08-0.26,0.25-0.47,0.53-0.62c0.24-0.13,0.47-0.18,0.7-0.14c0.23,0.04,0.41,0.16,0.52,0.35c0.04,0.08,0.09,0.19,0.13,0.34
			s0.09,0.26,0.12,0.32c0.13,0.23,0.48,0.18,1.05-0.15l3.5-1.98c0.27-0.15,0.44-0.26,0.5-0.32c0.2-0.17,0.25-0.33,0.15-0.5
			c-0.04-0.07-0.11-0.16-0.21-0.27s-0.18-0.21-0.22-0.28c-0.11-0.19-0.12-0.4-0.03-0.62c0.08-0.22,0.25-0.4,0.48-0.53
			c0.28-0.16,0.55-0.2,0.82-0.13c0.27,0.07,0.48,0.24,0.63,0.51c0,0.01,0.01,0.02,0.02,0.04c0,0.02,0.01,0.04,0.02,0.06
			c0.12,0.2,0.27,0.52,0.46,0.96c0.19,0.44,0.35,0.76,0.46,0.97c0.23,0.4,0.5,0.84,0.8,1.3c0.38,0.58,0.6,0.92,0.65,1
			c0.52,0.92,0.68,1.81,0.48,2.67c-0.2,0.86-0.71,1.53-1.56,2c-0.87,0.5-1.73,0.6-2.58,0.3c-0.84-0.29-1.55-0.95-2.12-1.96
			c-0.05-0.08-0.13-0.25-0.26-0.49L142.11,43.58z M144.05,42.03c-0.24,0.13-0.37,0.24-0.4,0.31c-0.03,0.07,0,0.2,0.1,0.39l0.1,0.21
			c0.5,1.03,1.17,1.3,2.02,0.82c0.81-0.46,0.96-1.13,0.45-2.02c-0.12-0.22-0.22-0.36-0.29-0.43c-0.13-0.13-0.28-0.16-0.46-0.11
			c-0.09,0.03-0.22,0.09-0.39,0.19L144.05,42.03z"/>
		<path class="st0" d="M147.9,57.47l-0.61-1.83c-0.17-0.52-0.57-0.68-1.2-0.47c-0.15,0.05-0.19,0.15-0.14,0.31
			c0.01,0.05,0.04,0.11,0.09,0.2c0.04,0.09,0.07,0.15,0.09,0.2c0.11,0.34-0.1,0.6-0.64,0.78c-0.29,0.1-0.56,0.1-0.79,0
			s-0.4-0.27-0.48-0.53c-0.04-0.13-0.1-0.42-0.19-0.89c-0.04-0.2-0.11-0.48-0.23-0.83c-0.12-0.38-0.24-0.67-0.33-0.87
			c-0.23-0.46-0.35-0.74-0.38-0.83c-0.09-0.28-0.08-0.54,0.03-0.78c0.11-0.24,0.31-0.4,0.6-0.5c0.64-0.21,1.04-0.08,1.21,0.41
			c0.02,0.06,0.04,0.14,0.07,0.27c0.03,0.12,0.05,0.21,0.07,0.27c0.06,0.17,0.2,0.28,0.43,0.33c0.06,0.01,0.26,0.02,0.57,0.03
			l6.04,0.11c0.69,0.02,1.16,0.14,1.4,0.36c0.17,0.17,0.37,0.6,0.59,1.29c0.26,0.77,0.37,1.27,0.34,1.51
			c-0.03,0.23-0.24,0.49-0.64,0.76l-5.28,3.71c-0.42,0.29-0.6,0.53-0.54,0.71c0.02,0.06,0.06,0.15,0.14,0.28l0.05,0.15
			c0.17,0.51-0.05,0.87-0.65,1.07c-0.3,0.1-0.58,0.09-0.82-0.03c-0.24-0.12-0.42-0.33-0.51-0.63c-0.04-0.13-0.08-0.3-0.13-0.52
			c-0.04-0.27-0.07-0.45-0.1-0.53c-0.05-0.21-0.13-0.47-0.23-0.79c-0.12-0.35-0.2-0.58-0.26-0.69c-0.23-0.44-0.36-0.72-0.4-0.84
			c-0.08-0.25-0.05-0.48,0.08-0.71s0.34-0.38,0.63-0.48c0.54-0.18,0.87-0.1,0.99,0.25c0.01,0.05,0.03,0.12,0.05,0.21
			s0.03,0.17,0.05,0.21c0.06,0.17,0.18,0.23,0.38,0.17c0.25-0.08,0.44-0.2,0.57-0.36S147.96,57.63,147.9,57.47z M149.94,56.57
			l2.6-1.6l-3.21,0.12c-0.03,0-0.06,0.01-0.1,0.02c-0.11,0.04-0.13,0.17-0.05,0.4l0.28,0.85c0.08,0.24,0.18,0.34,0.31,0.29
			C149.76,56.66,149.82,56.63,149.94,56.57z"/>
		<path class="st0" d="M156.63,71.88l-5.96,3.09l4.28-0.38c0.64-0.06,0.96-0.21,0.93-0.46c-0.01-0.07-0.03-0.16-0.08-0.29
			c-0.04-0.13-0.07-0.22-0.08-0.29c-0.02-0.2,0.06-0.38,0.23-0.54c0.17-0.16,0.39-0.25,0.66-0.27c0.32-0.03,0.58,0.04,0.79,0.21
			c0.21,0.17,0.33,0.4,0.35,0.7c0.01,0.15,0.01,0.42,0,0.8c-0.01,0.38-0.01,0.71,0.02,1c0.02,0.26,0.07,0.56,0.14,0.9
			c0.1,0.52,0.16,0.83,0.17,0.96c0.03,0.31-0.05,0.57-0.22,0.78c-0.18,0.21-0.42,0.33-0.74,0.36c-0.27,0.02-0.5-0.03-0.7-0.17
			c-0.2-0.14-0.31-0.32-0.33-0.54c-0.01-0.09,0-0.2,0.02-0.35c0.02-0.15,0.03-0.26,0.02-0.34c-0.02-0.19-0.15-0.31-0.39-0.34
			c-0.1-0.01-0.3,0-0.61,0.02l-5.88,0.52c-0.63,0.06-0.98-0.17-1.02-0.69c-0.01-0.1-0.01-0.24-0.02-0.44c0-0.2-0.01-0.35-0.02-0.44
			c0-0.01-0.03-0.24-0.09-0.71l-0.03-0.32c-0.03-0.28,0.02-0.49,0.15-0.64c0.07-0.08,0.27-0.21,0.59-0.39l6.11-3.35l-4.36,0.39
			c-0.66,0.06-0.97,0.21-0.95,0.46c0.01,0.07,0.03,0.17,0.08,0.31c0.05,0.14,0.07,0.24,0.08,0.31c0.02,0.2-0.06,0.38-0.23,0.54
			c-0.17,0.16-0.39,0.25-0.66,0.27c-0.7,0.06-1.08-0.24-1.14-0.92c-0.02-0.19-0.02-0.51,0-0.96c0.01-0.3,0.01-0.6-0.02-0.9
			c-0.02-0.25-0.08-0.59-0.16-1c-0.09-0.42-0.13-0.69-0.14-0.8c-0.06-0.7,0.26-1.08,0.96-1.15c0.27-0.02,0.5,0.03,0.7,0.16
			c0.2,0.13,0.3,0.31,0.32,0.53c0.01,0.09,0,0.21-0.02,0.36s-0.03,0.27-0.02,0.34c0.02,0.26,0.36,0.36,1.02,0.3l4-0.35
			c0.65-0.06,0.96-0.22,0.93-0.48c-0.01-0.08-0.03-0.19-0.08-0.34s-0.07-0.26-0.08-0.35c-0.02-0.22,0.05-0.42,0.22-0.58
			c0.17-0.17,0.39-0.26,0.66-0.28c0.32-0.03,0.58,0.04,0.79,0.22c0.21,0.17,0.33,0.42,0.36,0.72c0.02,0.2,0.02,0.5,0.01,0.89
			s-0.01,0.69,0.01,0.92c0.02,0.18,0.06,0.49,0.14,0.93c0.03,0.2,0.07,0.43,0.12,0.69c0.03,0.11,0.05,0.24,0.06,0.37
			c0.02,0.26-0.06,0.47-0.25,0.63C157.19,71.57,156.98,71.69,156.63,71.88z"/>
		<path class="st0" d="M146.92,98.88c-0.37-0.42-0.64-0.98-0.83-1.66c-0.5,0-0.77,0.09-0.81,0.27c-0.02,0.1-0.02,0.18,0.01,0.23
			c0.03,0.05,0.15,0.14,0.34,0.28c0.26,0.18,0.36,0.44,0.28,0.78c-0.06,0.26-0.2,0.45-0.42,0.57c-0.22,0.12-0.48,0.14-0.78,0.07
			c-0.52-0.12-0.88-0.41-1.1-0.87s-0.25-1.01-0.09-1.66c0.19-0.82,0.54-1.36,1.04-1.63c0.24-0.13,0.66-0.19,1.26-0.18
			c0.05,0,0.14,0,0.27,0l0.04-0.16c0.32-1.35,0.95-2.3,1.88-2.85c1.11-0.64,2.48-0.77,4.11-0.39c1.53,0.36,2.65,1.04,3.35,2.03
			c0.7,0.99,0.89,2.16,0.57,3.52c-0.33,1.42-1.03,2.43-2.09,3.02c-1.06,0.59-2.36,0.71-3.92,0.34
			C148.66,100.27,147.63,99.7,146.92,98.88z M150.24,95.89c-0.18,0.77-0.79,1.12-1.82,1.03c0.29,0.29,0.62,0.51,0.99,0.67
			c0.24,0.11,0.63,0.22,1.15,0.35c1.06,0.25,1.87,0.29,2.42,0.12c0.55-0.17,0.9-0.57,1.05-1.21c0.15-0.63,0.02-1.15-0.4-1.56
			s-1.14-0.74-2.19-0.98c-0.95-0.22-1.67-0.29-2.16-0.18c-0.49,0.1-0.84,0.39-1.05,0.87c0.19,0.01,0.38-0.04,0.58-0.16
			c0.3-0.19,0.57-0.25,0.79-0.2c0.25,0.06,0.44,0.21,0.56,0.45S150.31,95.59,150.24,95.89z"/>
		<path class="st0" d="M146.24,115.21l-0.58-0.27l-1.16-0.53l-0.41-0.19c-0.98-0.46-1.56-0.75-1.74-0.86
			c-0.63-0.38-1.05-0.84-1.26-1.38c-0.41-1.04-0.29-2.25,0.37-3.65c0.68-1.45,1.54-2.29,2.58-2.54c0.64-0.15,1.41-0.01,2.32,0.41
			c0.08,0.04,0.56,0.28,1.44,0.72c0.59,0.3,1.06,0.53,1.42,0.7l0.51,0.24c0.47,0.22,0.77,0.21,0.89-0.05
			c0.03-0.06,0.06-0.17,0.09-0.31c0.03-0.15,0.06-0.26,0.1-0.34c0.09-0.2,0.25-0.33,0.48-0.39c0.23-0.06,0.46-0.03,0.71,0.08
			c0.3,0.14,0.49,0.34,0.58,0.61c0.09,0.27,0.06,0.56-0.08,0.87c-0.09,0.19-0.25,0.47-0.47,0.84c-0.23,0.36-0.38,0.64-0.47,0.83
			c-0.08,0.17-0.17,0.43-0.28,0.77s-0.2,0.61-0.28,0.77c-0.12,0.26-0.31,0.43-0.56,0.51c-0.25,0.08-0.52,0.04-0.82-0.1
			c-0.53-0.25-0.7-0.55-0.54-0.91l0.06-0.13c0.03-0.04,0.06-0.09,0.09-0.16c0.07-0.15,0.02-0.28-0.15-0.39
			c-0.01,0-0.16-0.08-0.46-0.21l-3.01-1.41c-0.6-0.28-1.08-0.38-1.42-0.29s-0.63,0.38-0.86,0.87c-0.23,0.49-0.27,0.91-0.11,1.25
			c0.15,0.34,0.52,0.65,1.11,0.93l3.01,1.41c0.32,0.15,0.54,0.23,0.64,0.23c0.1,0,0.18-0.05,0.24-0.18
			c0.03-0.06,0.05-0.12,0.06-0.16l0.06-0.13c0.17-0.36,0.52-0.41,1.05-0.16c0.29,0.14,0.48,0.33,0.58,0.57
			c0.1,0.24,0.09,0.5-0.04,0.76c-0.08,0.17-0.22,0.41-0.42,0.72s-0.34,0.56-0.42,0.72c-0.09,0.19-0.21,0.49-0.34,0.9
			c-0.14,0.41-0.25,0.71-0.34,0.9c-0.14,0.3-0.34,0.5-0.6,0.59s-0.54,0.08-0.83-0.06c-0.25-0.12-0.43-0.28-0.52-0.49
			c-0.09-0.21-0.09-0.42,0.01-0.64c0.03-0.07,0.09-0.16,0.18-0.27c0.09-0.11,0.15-0.2,0.18-0.26
			C146.93,115.69,146.74,115.44,146.24,115.21z"/>
		<path class="st0" d="M139.9,126.44c0.2-0.25,0.3-0.44,0.32-0.56c0.02-0.17-0.09-0.34-0.33-0.53l-0.64-0.5
			c-0.13-0.1-0.24-0.16-0.33-0.17s-0.19,0.05-0.31,0.19c-0.26,0.34-0.27,0.6-0.02,0.79l0.15,0.12c0.05,0.03,0.11,0.07,0.18,0.12
			c0.32,0.25,0.34,0.56,0.05,0.94c-0.3,0.39-0.65,0.43-1.04,0.13c-0.11-0.08-0.22-0.18-0.34-0.3c-0.23-0.22-0.45-0.42-0.66-0.59
			c-0.2-0.15-0.46-0.33-0.79-0.54s-0.56-0.36-0.68-0.45c-0.45-0.35-0.52-0.73-0.21-1.13c0.3-0.38,0.64-0.42,1.03-0.12l0.06,0.04
			c0.04,0.03,0.12,0.11,0.26,0.24c0.18,0.14,0.4,0.05,0.66-0.28c0.17-0.22,0.13-0.43-0.11-0.62l-0.86-0.67
			c-0.27-0.21-0.49-0.3-0.66-0.28s-0.36,0.16-0.56,0.42l-0.51,0.67c-0.38,0.49-0.6,0.86-0.67,1.12c-0.07,0.26,0.01,0.47,0.22,0.64
			c0.11,0.08,0.24,0.17,0.41,0.26c0.17,0.09,0.3,0.18,0.4,0.25c0.28,0.22,0.44,0.47,0.48,0.76c0.04,0.28-0.05,0.56-0.27,0.84
			c-0.43,0.56-0.95,0.6-1.56,0.13c-0.2-0.15-0.4-0.33-0.6-0.52c-0.34-0.32-0.55-0.52-0.64-0.59c-0.08-0.07-0.26-0.17-0.54-0.32
			c-0.16-0.09-0.32-0.19-0.47-0.31c-0.36-0.28-0.36-0.64-0.01-1.09c0.11-0.15,0.31-0.38,0.59-0.7c0.47-0.53,1.19-1.4,2.15-2.61
			l0.79-1.02c0.29-0.38,0.53-0.71,0.7-0.98l0.59-0.93c0.01-0.01,0.01-0.03,0.02-0.06c0.02-0.02,0.03-0.04,0.04-0.06
			c0.18-0.24,0.41-0.37,0.69-0.39s0.54,0.06,0.78,0.25c0.21,0.17,0.35,0.36,0.4,0.59c0.05,0.23,0.01,0.44-0.13,0.62
			c-0.05,0.06-0.13,0.14-0.25,0.25c-0.12,0.1-0.2,0.18-0.24,0.23c-0.16,0.21,0.02,0.51,0.54,0.91l3.17,2.46
			c0.51,0.4,0.85,0.49,1.01,0.29c0.04-0.05,0.09-0.15,0.17-0.31c0.05-0.12,0.11-0.21,0.17-0.29c0.14-0.18,0.32-0.27,0.56-0.28
			c0.24-0.01,0.47,0.07,0.68,0.23c0.56,0.43,0.62,0.93,0.19,1.48c-0.1,0.13-0.32,0.38-0.66,0.76c-0.51,0.56-0.98,1.12-1.41,1.68
			c-0.04,0.05-0.38,0.52-1.03,1.4c-0.47,0.64-0.77,1.06-0.91,1.27c-0.23,0.35-0.49,0.7-0.76,1.06c-0.33,0.43-0.68,0.5-1.06,0.21
			c-0.12-0.1-0.29-0.25-0.51-0.46c-0.22-0.21-0.38-0.36-0.51-0.46c-0.12-0.09-0.31-0.21-0.56-0.35s-0.44-0.25-0.55-0.34
			c-0.22-0.17-0.34-0.4-0.37-0.68c-0.03-0.28,0.06-0.55,0.25-0.79c0.44-0.57,0.96-0.63,1.55-0.18c0.1,0.08,0.22,0.2,0.37,0.37
			c0.15,0.17,0.27,0.29,0.35,0.35c0.17,0.13,0.34,0.12,0.51-0.02c0.06-0.05,0.2-0.21,0.4-0.46L139.9,126.44z"/>
		<path class="st0" d="M120.09,138.77c0.22-0.14,0.25-0.33,0.08-0.58l-0.26-0.38c-0.19-0.27-0.4-0.32-0.64-0.16
			c-0.1,0.07-0.21,0.16-0.33,0.28c-0.15,0.15-0.29,0.27-0.41,0.35c-0.2,0.14-0.41,0.17-0.63,0.11s-0.41-0.21-0.57-0.45
			c-0.18-0.26-0.25-0.53-0.2-0.8c0.05-0.27,0.2-0.49,0.46-0.67c0.22-0.15,0.57-0.36,1.03-0.62s0.81-0.47,1.03-0.62
			c0.34-0.24,0.62-0.45,0.83-0.63l0.54-0.46c0.15-0.12,0.25-0.21,0.31-0.25c0.25-0.18,0.51-0.24,0.78-0.19s0.49,0.21,0.67,0.47
			c0.15,0.22,0.22,0.45,0.2,0.69c-0.02,0.24-0.12,0.42-0.3,0.54c-0.07,0.05-0.18,0.1-0.33,0.16c-0.15,0.06-0.25,0.11-0.3,0.15
			c-0.21,0.15-0.13,0.49,0.24,1.03l2.28,3.31c0.18,0.25,0.3,0.41,0.36,0.47c0.18,0.18,0.35,0.21,0.51,0.1
			c0.06-0.04,0.15-0.12,0.25-0.24c0.1-0.11,0.19-0.19,0.26-0.25c0.18-0.12,0.39-0.16,0.62-0.09c0.23,0.07,0.42,0.21,0.57,0.43
			c0.18,0.26,0.25,0.53,0.2,0.8c-0.05,0.27-0.2,0.5-0.45,0.67c-0.01,0.01-0.02,0.01-0.04,0.03c-0.02,0-0.04,0.01-0.06,0.02
			c-0.19,0.13-0.5,0.31-0.91,0.54c-0.42,0.23-0.73,0.41-0.92,0.55c-0.38,0.26-0.79,0.57-1.22,0.91c-0.54,0.43-0.86,0.68-0.94,0.74
			c-0.87,0.6-1.74,0.84-2.61,0.72s-1.59-0.58-2.14-1.37c-0.57-0.83-0.75-1.68-0.53-2.54c0.22-0.87,0.8-1.63,1.76-2.29
			c0.08-0.05,0.23-0.16,0.46-0.3L120.09,138.77z M121.81,140.57c-0.15-0.22-0.27-0.35-0.34-0.37c-0.08-0.03-0.2,0.02-0.38,0.13
			l-0.2,0.12c-0.98,0.59-1.19,1.29-0.64,2.08c0.53,0.76,1.21,0.85,2.06,0.27c0.21-0.14,0.34-0.25,0.4-0.33
			c0.12-0.14,0.14-0.29,0.06-0.47c-0.04-0.09-0.11-0.22-0.22-0.38L121.81,140.57z"/>
		<path class="st0" d="M106.24,142.47c1.35-0.58,2.57-0.62,3.66-0.13c1.09,0.5,1.96,1.5,2.6,3c0.62,1.45,0.75,2.74,0.38,3.89
			c-0.37,1.15-1.2,2-2.49,2.55c-1.35,0.58-2.57,0.63-3.68,0.15c-1.1-0.48-1.97-1.45-2.59-2.89c-0.65-1.5-0.79-2.83-0.42-3.98
			S104.91,143.04,106.24,142.47z M109.48,149.96c1.15-0.5,1.32-1.69,0.51-3.57c-0.39-0.9-0.79-1.52-1.19-1.85
			c-0.51-0.42-1.09-0.49-1.74-0.21c-1.14,0.49-1.32,1.66-0.53,3.48c0.44,1.01,0.89,1.69,1.36,2.03
			C108.36,150.17,108.89,150.22,109.48,149.96z"/>
		<path class="st0" d="M90.93,153.03c0.23-0.25,0.63-0.5,1.19-0.75c-0.71,0.03-1.23-0.07-1.57-0.3c-0.34-0.23-0.58-0.63-0.7-1.19
			c-0.04-0.17-0.07-0.34-0.09-0.5l-0.04-0.17c-0.08-0.39-0.24-0.56-0.46-0.51c-0.06,0.01-0.14,0.04-0.25,0.09
			c-0.11,0.05-0.2,0.08-0.26,0.09c-0.21,0.04-0.39-0.01-0.56-0.16c-0.16-0.15-0.28-0.37-0.34-0.65c-0.07-0.31-0.03-0.58,0.12-0.8
			c0.15-0.22,0.37-0.37,0.67-0.43c0.1-0.02,0.27-0.04,0.49-0.07c0.22-0.02,0.39-0.04,0.49-0.06c0.11-0.02,0.28-0.07,0.5-0.14
			c0.22-0.07,0.38-0.12,0.5-0.14c0.35-0.07,0.66,0.01,0.93,0.26c0.27,0.24,0.46,0.6,0.56,1.08c0.01,0.05,0.01,0.08,0.01,0.1
			l0.14,0.83l0.02,0.1c0.1,0.49,0.3,0.81,0.59,0.94s0.76,0.14,1.41,0c0.27-0.06,0.42-0.16,0.45-0.32c0.03-0.1,0.01-0.28-0.04-0.54
			l-0.07-0.33c-0.13-0.64-0.32-0.94-0.56-0.89c-0.07,0.01-0.16,0.05-0.29,0.11s-0.23,0.1-0.31,0.12c-0.2,0.04-0.39-0.01-0.56-0.16
			s-0.29-0.36-0.34-0.62c-0.14-0.69,0.11-1.11,0.78-1.24c0.23-0.05,0.54-0.09,0.94-0.12c0.4-0.03,0.74-0.08,1.02-0.14
			c0.3-0.06,0.65-0.16,1.04-0.29c0.39-0.13,0.72-0.22,0.99-0.28c0.69-0.15,1.11,0.13,1.25,0.82c0.05,0.26,0.03,0.5-0.08,0.71
			c-0.11,0.21-0.27,0.34-0.49,0.38c-0.09,0.02-0.21,0.03-0.37,0.02s-0.27,0-0.34,0.02c-0.26,0.05-0.32,0.4-0.18,1.05l0.82,3.93
			c0.06,0.3,0.11,0.5,0.15,0.58c0.1,0.24,0.24,0.33,0.43,0.29c0.08-0.02,0.18-0.06,0.32-0.12c0.14-0.06,0.25-0.1,0.34-0.12
			c0.22-0.05,0.42,0.01,0.6,0.15c0.18,0.15,0.3,0.36,0.36,0.62c0.06,0.3,0.02,0.57-0.12,0.81c-0.14,0.24-0.36,0.39-0.65,0.45
			c-0.06,0.01-0.1,0.02-0.13,0.01l-1.03,0.11c-0.29,0.03-0.6,0.08-0.92,0.15c-0.56,0.12-1.26,0.29-2.1,0.53
			c-0.56,0.16-0.98,0.26-1.25,0.32c-0.9,0.19-1.66,0.11-2.28-0.23c-0.62-0.34-1.01-0.9-1.17-1.67
			C90.37,154.04,90.51,153.46,90.93,153.03z M94.61,154.54c0.38-0.08,0.62-0.15,0.72-0.23c0.19-0.14,0.25-0.36,0.18-0.68l-0.18-0.85
			c-0.04-0.22-0.11-0.35-0.2-0.41c-0.08-0.05-0.23-0.06-0.42-0.01c-1.23,0.26-1.77,0.75-1.62,1.48
			C93.24,154.49,93.74,154.72,94.61,154.54z"/>
		<path class="st0" d="M66.22,154.73c0.12-1.06,0.78-1.66,1.99-1.81l-0.34-0.18c-0.72-0.38-1.17-0.83-1.36-1.34
			c-0.14-0.4-0.19-0.79-0.15-1.2c0.1-0.91,0.51-1.58,1.22-2.02c0.71-0.43,1.66-0.58,2.84-0.45c0.37,0.04,0.77,0.1,1.18,0.17
			l1.01,0.18c0.27,0.05,0.56,0.09,0.88,0.13c0.23,0.03,0.57,0.04,1.02,0.04c0.45,0,0.77,0.01,0.96,0.03l0.12,0.01
			c0.31,0.03,0.54,0.16,0.71,0.37c0.17,0.21,0.23,0.48,0.2,0.79c-0.03,0.27-0.13,0.49-0.3,0.65c-0.17,0.17-0.36,0.24-0.58,0.21
			c-0.09-0.01-0.2-0.04-0.35-0.09c-0.15-0.05-0.26-0.08-0.33-0.09c-0.26-0.03-0.42,0.28-0.5,0.94L74,155.07
			c-0.07,0.64,0.02,0.98,0.28,1.01c0.08,0.01,0.19,0,0.34-0.01s0.27-0.02,0.36-0.01c0.22,0.02,0.4,0.14,0.53,0.34
			c0.13,0.2,0.18,0.43,0.15,0.7c-0.03,0.32-0.16,0.56-0.37,0.74c-0.21,0.18-0.47,0.25-0.77,0.21c-0.02,0-0.04,0-0.06,0
			c-0.03-0.01-0.05-0.02-0.06-0.02l-1.01-0.21c-0.29-0.06-0.67-0.12-1.15-0.17c-0.38-0.04-0.67-0.07-0.9-0.07l-0.99-0.02
			c-0.22-0.01-0.54-0.03-0.97-0.08c-0.63-0.07-1.2-0.2-1.69-0.39c-0.49-0.19-0.88-0.5-1.15-0.94S66.16,155.24,66.22,154.73z
			 M71.57,154.34c0.02-0.19,0-0.32-0.08-0.37c-0.04-0.04-0.16-0.08-0.35-0.1l-0.45-0.05c-0.5-0.06-0.91-0.01-1.22,0.14
			c-0.31,0.15-0.49,0.38-0.52,0.69c-0.07,0.64,0.39,1.02,1.39,1.13c0.37,0.04,0.62,0.04,0.76,0c0.21-0.07,0.34-0.27,0.37-0.59
			L71.57,154.34z M69.05,150.59c-0.04,0.39,0.1,0.73,0.43,1.01c0.33,0.28,0.79,0.45,1.37,0.51l0.43,0.05
			c0.21,0.02,0.35,0.01,0.43-0.05s0.12-0.17,0.14-0.34l0.12-1.05c0.04-0.37-0.04-0.63-0.23-0.79c-0.2-0.16-0.57-0.27-1.13-0.33
			c-0.42-0.05-0.78,0.02-1.07,0.2C69.25,149.98,69.09,150.24,69.05,150.59z"/>
		<path class="st0" d="M60.54,147.74c-0.18-0.05-0.34,0.03-0.45,0.26c-0.05,0.09-0.11,0.28-0.2,0.58l-1.13,3.85
			c-0.09,0.3-0.13,0.49-0.14,0.58c-0.02,0.26,0.06,0.41,0.24,0.46c0.07,0.02,0.19,0.04,0.34,0.05c0.15,0.01,0.27,0.03,0.35,0.05
			c0.21,0.06,0.37,0.2,0.46,0.42c0.09,0.22,0.1,0.46,0.02,0.72c-0.09,0.31-0.26,0.54-0.49,0.66c-0.23,0.13-0.5,0.15-0.81,0.06
			c-0.14-0.04-0.46-0.17-0.95-0.37c-0.33-0.14-0.66-0.25-0.99-0.35c-0.26-0.08-0.64-0.16-1.14-0.26c-0.5-0.1-0.83-0.17-0.99-0.22
			c-0.68-0.2-0.92-0.64-0.72-1.31c0.08-0.26,0.21-0.46,0.41-0.59s0.4-0.17,0.61-0.11c0.07,0.02,0.18,0.07,0.32,0.15
			c0.14,0.08,0.25,0.12,0.32,0.15c0.25,0.07,0.47-0.2,0.65-0.82l1.13-3.85c0.19-0.63,0.15-0.98-0.1-1.06
			c-0.07-0.02-0.19-0.04-0.35-0.05c-0.16-0.01-0.27-0.03-0.35-0.05c-0.21-0.06-0.37-0.2-0.46-0.42c-0.09-0.22-0.1-0.46-0.02-0.72
			c0.09-0.3,0.25-0.51,0.49-0.66c0.24-0.14,0.5-0.17,0.78-0.09c0.05,0.02,0.1,0.03,0.12,0.05l0.84,0.37
			c0.21,0.09,0.46,0.18,0.73,0.26c0.42,0.12,0.86,0.23,1.33,0.31c0.56,0.11,0.93,0.18,1.1,0.23c0.3,0.09,0.51,0.25,0.64,0.49
			c0.13,0.24,0.15,0.51,0.06,0.82c-0.08,0.27-0.22,0.47-0.41,0.6c-0.19,0.13-0.4,0.16-0.62,0.09c-0.07-0.02-0.18-0.07-0.31-0.14
			C60.72,147.81,60.62,147.76,60.54,147.74z"/>
		<path class="st0" d="M44.05,147.86c0.28,0.14,0.49,0.21,0.61,0.21c0.17-0.01,0.32-0.15,0.46-0.42l0.37-0.72
			c0.07-0.15,0.11-0.27,0.11-0.36c0-0.09-0.08-0.18-0.25-0.26c-0.38-0.19-0.64-0.15-0.78,0.13l-0.09,0.17
			c-0.02,0.06-0.04,0.12-0.08,0.2c-0.18,0.36-0.49,0.44-0.91,0.22c-0.44-0.22-0.55-0.55-0.33-0.99c0.06-0.12,0.14-0.25,0.23-0.39
			c0.18-0.27,0.33-0.52,0.45-0.76c0.11-0.22,0.24-0.52,0.38-0.88s0.25-0.61,0.31-0.75c0.26-0.51,0.61-0.65,1.07-0.42
			c0.43,0.22,0.54,0.55,0.31,0.99l-0.03,0.06c-0.02,0.04-0.08,0.14-0.18,0.3c-0.1,0.21,0.03,0.4,0.4,0.59
			c0.25,0.13,0.45,0.05,0.58-0.23l0.49-0.97c0.15-0.3,0.2-0.54,0.15-0.7c-0.05-0.16-0.23-0.32-0.52-0.47l-0.75-0.38
			c-0.55-0.28-0.96-0.43-1.23-0.44c-0.27-0.02-0.46,0.1-0.58,0.34c-0.06,0.12-0.12,0.27-0.18,0.45s-0.12,0.33-0.17,0.44
			c-0.16,0.32-0.38,0.52-0.65,0.61s-0.57,0.05-0.88-0.1c-0.63-0.32-0.77-0.82-0.42-1.51c0.11-0.22,0.25-0.46,0.4-0.69
			c0.25-0.39,0.4-0.64,0.46-0.74c0.05-0.09,0.12-0.29,0.22-0.59c0.06-0.18,0.13-0.35,0.22-0.53c0.21-0.41,0.56-0.48,1.07-0.22
			c0.16,0.08,0.43,0.23,0.8,0.45c0.61,0.36,1.6,0.9,2.97,1.61l1.15,0.58c0.43,0.22,0.8,0.39,1.09,0.5l1.03,0.41
			c0.01,0,0.03,0.01,0.06,0.01c0.03,0.01,0.05,0.02,0.06,0.03c0.27,0.14,0.44,0.34,0.52,0.6c0.08,0.27,0.05,0.54-0.09,0.81
			c-0.12,0.24-0.29,0.41-0.51,0.51s-0.43,0.09-0.64-0.01c-0.07-0.03-0.17-0.1-0.29-0.2c-0.12-0.1-0.21-0.17-0.27-0.2
			c-0.23-0.12-0.5,0.12-0.79,0.7l-1.81,3.58c-0.29,0.58-0.32,0.93-0.09,1.04c0.05,0.03,0.16,0.06,0.34,0.1
			c0.12,0.03,0.23,0.07,0.32,0.11c0.2,0.1,0.33,0.27,0.38,0.5c0.06,0.23,0.02,0.47-0.1,0.71c-0.32,0.63-0.79,0.79-1.42,0.47
			c-0.15-0.07-0.44-0.24-0.87-0.5c-0.65-0.39-1.28-0.75-1.92-1.07c-0.06-0.03-0.58-0.28-1.57-0.75c-0.71-0.34-1.19-0.56-1.42-0.65
			c-0.38-0.16-0.78-0.34-1.18-0.55c-0.48-0.24-0.62-0.58-0.4-1c0.07-0.14,0.19-0.33,0.35-0.58c0.17-0.25,0.28-0.45,0.35-0.58
			c0.07-0.14,0.15-0.34,0.24-0.62c0.09-0.28,0.17-0.48,0.23-0.61c0.13-0.25,0.33-0.42,0.6-0.49c0.27-0.08,0.55-0.05,0.82,0.09
			c0.65,0.33,0.8,0.82,0.47,1.49c-0.06,0.11-0.16,0.26-0.29,0.44c-0.14,0.18-0.23,0.32-0.28,0.41c-0.09,0.19-0.06,0.36,0.12,0.5
			c0.06,0.05,0.24,0.15,0.53,0.3L44.05,147.86z"/>
		<path class="st0" d="M29.72,139.54l1.97-6.41l-2.73,3.31c-0.41,0.5-0.52,0.83-0.33,0.99c0.05,0.04,0.14,0.09,0.26,0.15
			c0.12,0.06,0.21,0.11,0.26,0.15c0.16,0.13,0.23,0.31,0.22,0.54c-0.01,0.23-0.1,0.45-0.27,0.66c-0.2,0.25-0.44,0.38-0.7,0.42
			c-0.26,0.03-0.51-0.05-0.74-0.24c-0.12-0.1-0.31-0.29-0.57-0.56c-0.26-0.28-0.5-0.51-0.73-0.69c-0.2-0.17-0.45-0.34-0.74-0.54
			c-0.44-0.29-0.71-0.47-0.81-0.55c-0.24-0.2-0.37-0.43-0.4-0.7c-0.03-0.27,0.06-0.53,0.26-0.78c0.17-0.21,0.38-0.33,0.61-0.38
			c0.24-0.04,0.44,0,0.61,0.15c0.07,0.06,0.15,0.14,0.24,0.26c0.09,0.12,0.17,0.2,0.22,0.25c0.15,0.12,0.32,0.11,0.52-0.04
			c0.08-0.06,0.21-0.21,0.41-0.45l3.75-4.56c0.41-0.49,0.81-0.57,1.21-0.24c0.07,0.06,0.18,0.16,0.33,0.3
			c0.14,0.14,0.25,0.24,0.33,0.3c0.01,0.01,0.2,0.15,0.57,0.43l0.25,0.2c0.22,0.18,0.33,0.36,0.35,0.55
			c0.01,0.11-0.04,0.34-0.14,0.69l-1.89,6.71l2.78-3.38c0.42-0.51,0.53-0.84,0.33-1c-0.05-0.04-0.14-0.1-0.27-0.16
			s-0.22-0.12-0.27-0.16c-0.16-0.13-0.23-0.31-0.22-0.54c0.01-0.23,0.1-0.45,0.27-0.66c0.45-0.54,0.93-0.6,1.46-0.17
			c0.15,0.12,0.38,0.35,0.68,0.68c0.21,0.22,0.43,0.42,0.66,0.62c0.19,0.16,0.47,0.36,0.83,0.59s0.58,0.39,0.67,0.46
			c0.54,0.45,0.59,0.95,0.14,1.49c-0.17,0.21-0.37,0.34-0.61,0.38s-0.43,0-0.61-0.14c-0.07-0.06-0.15-0.14-0.24-0.26
			c-0.09-0.12-0.17-0.21-0.23-0.26c-0.2-0.17-0.51,0-0.93,0.51l-2.55,3.1c-0.41,0.5-0.52,0.83-0.32,1c0.06,0.05,0.16,0.11,0.29,0.18
			c0.14,0.07,0.24,0.13,0.31,0.19c0.17,0.14,0.26,0.33,0.26,0.57c0,0.24-0.09,0.46-0.26,0.67c-0.2,0.25-0.44,0.38-0.71,0.41
			c-0.27,0.03-0.53-0.06-0.77-0.25c-0.16-0.13-0.37-0.33-0.64-0.62c-0.27-0.28-0.49-0.5-0.66-0.64c-0.14-0.12-0.4-0.3-0.76-0.55
			c-0.16-0.12-0.35-0.25-0.57-0.4c-0.1-0.06-0.21-0.13-0.31-0.22c-0.2-0.17-0.29-0.37-0.28-0.62
			C29.54,140.16,29.6,139.92,29.72,139.54z"/>
		<path class="st0" d="M12.41,119.65l3.99-5.4l-3.67,2.22c-0.55,0.33-0.77,0.61-0.64,0.82c0.04,0.06,0.1,0.13,0.2,0.23
			c0.1,0.09,0.16,0.17,0.2,0.23c0.1,0.17,0.12,0.37,0.03,0.58c-0.08,0.22-0.24,0.39-0.47,0.53c-0.27,0.17-0.54,0.22-0.8,0.16
			c-0.26-0.06-0.47-0.21-0.62-0.47c-0.08-0.13-0.2-0.37-0.35-0.72c-0.15-0.35-0.31-0.65-0.46-0.89c-0.13-0.22-0.31-0.47-0.52-0.75
			c-0.32-0.42-0.51-0.68-0.58-0.79c-0.16-0.27-0.21-0.53-0.14-0.8s0.23-0.48,0.51-0.64c0.23-0.14,0.47-0.19,0.7-0.15
			c0.24,0.04,0.41,0.15,0.53,0.34c0.04,0.07,0.09,0.18,0.14,0.32c0.05,0.14,0.09,0.25,0.13,0.31c0.1,0.17,0.27,0.21,0.5,0.13
			c0.09-0.03,0.27-0.13,0.54-0.29l5.05-3.05c0.55-0.33,0.95-0.27,1.22,0.18c0.05,0.08,0.12,0.21,0.21,0.39
			c0.09,0.18,0.16,0.31,0.21,0.39c0,0.01,0.13,0.2,0.39,0.59l0.16,0.27c0.15,0.24,0.2,0.45,0.15,0.64
			c-0.03,0.11-0.15,0.31-0.36,0.61l-4.01,5.7l3.75-2.27c0.56-0.34,0.78-0.62,0.65-0.83c-0.03-0.06-0.1-0.14-0.21-0.24
			c-0.1-0.1-0.17-0.18-0.2-0.24c-0.11-0.17-0.12-0.37-0.03-0.58c0.08-0.22,0.24-0.39,0.47-0.53c0.6-0.37,1.08-0.26,1.43,0.32
			c0.1,0.17,0.24,0.45,0.42,0.86c0.12,0.28,0.26,0.54,0.42,0.8c0.13,0.22,0.33,0.49,0.59,0.83s0.42,0.56,0.48,0.66
			c0.37,0.6,0.25,1.09-0.36,1.45c-0.23,0.14-0.46,0.19-0.7,0.16s-0.41-0.15-0.53-0.33c-0.04-0.07-0.09-0.19-0.14-0.33
			c-0.05-0.15-0.09-0.25-0.13-0.32c-0.14-0.22-0.48-0.17-1.05,0.17l-3.44,2.08c-0.55,0.34-0.76,0.61-0.63,0.84
			c0.04,0.07,0.11,0.15,0.22,0.27c0.11,0.11,0.18,0.2,0.23,0.28c0.11,0.19,0.13,0.4,0.05,0.62c-0.08,0.22-0.24,0.41-0.47,0.54
			c-0.27,0.17-0.54,0.21-0.81,0.15s-0.48-0.23-0.64-0.49c-0.1-0.17-0.24-0.44-0.4-0.79c-0.16-0.36-0.3-0.63-0.41-0.82
			c-0.1-0.16-0.27-0.42-0.54-0.78c-0.11-0.17-0.25-0.36-0.41-0.57c-0.08-0.09-0.15-0.19-0.22-0.31c-0.13-0.22-0.15-0.45-0.05-0.68
			C12.04,120.18,12.18,119.97,12.41,119.65z"/>
		<path class="st0" d="M13.8,101.54c0.48,1.39,0.43,2.61-0.15,3.66s-1.64,1.84-3.19,2.37c-1.49,0.51-2.79,0.54-3.91,0.08
			c-1.12-0.46-1.9-1.35-2.36-2.68c-0.48-1.39-0.44-2.62,0.13-3.68s1.59-1.85,3.08-2.37c1.54-0.53,2.88-0.57,4-0.11
			C12.53,99.27,13.33,100.17,13.8,101.54z M6.09,104.21c0.41,1.19,1.58,1.45,3.52,0.78c0.92-0.32,1.57-0.67,1.94-1.05
			c0.46-0.47,0.58-1.05,0.34-1.71c-0.41-1.18-1.55-1.44-3.43-0.8c-1.04,0.36-1.75,0.76-2.12,1.2C5.96,103.07,5.88,103.6,6.09,104.21
			z"/>
		<path class="st0" d="M2.61,81.99l4.64-1.4l-4.7-1.28c-0.16-0.05-0.28-0.07-0.35-0.07c-0.16,0-0.24,0.08-0.23,0.24L2,79.69l0,0.03
			c0.01,0.44-0.28,0.67-0.86,0.68c-0.71,0.01-1.06-0.29-1.08-0.91c0-0.2,0.01-0.5,0.05-0.9c0.04-0.4,0.06-0.7,0.05-0.9
			c-0.01-0.31-0.03-0.59-0.08-0.84C0.04,76.48,0,76.2,0,76.03c-0.01-0.3,0.08-0.54,0.27-0.73C0.45,75.11,0.7,75.01,1,75.01
			c0.28-0.01,0.52,0.06,0.71,0.2c0.2,0.14,0.3,0.31,0.3,0.51c0,0.07-0.01,0.17-0.04,0.29c-0.03,0.13-0.05,0.21-0.05,0.25
			c0,0.23,0.43,0.47,1.26,0.73l5.41,1.66c0.8,0.25,1.2,0.62,1.21,1.12c0,0.1,0,0.24-0.01,0.44c-0.01,0.19-0.01,0.34-0.01,0.44
			c0,0.1,0.01,0.24,0.03,0.42c0.02,0.18,0.03,0.32,0.03,0.42c0.01,0.51-0.54,0.96-1.66,1.34L2.8,84.64c-0.47,0.16-0.7,0.34-0.7,0.54
			c0,0.07,0.02,0.16,0.06,0.27c0.04,0.11,0.06,0.22,0.06,0.33c0,0.21-0.08,0.39-0.26,0.52c-0.18,0.13-0.41,0.2-0.68,0.21
			c-0.71,0.01-1.07-0.33-1.08-1.04c0-0.19,0.01-0.49,0.05-0.89s0.06-0.7,0.05-0.9c-0.01-0.29-0.04-0.62-0.09-0.98
			c-0.05-0.37-0.08-0.62-0.09-0.77c-0.01-0.64,0.34-0.96,1.05-0.98c0.57-0.01,0.86,0.18,0.87,0.58l0,0.14
			c-0.01,0.03-0.01,0.07-0.01,0.13c0,0.17,0.09,0.26,0.25,0.26C2.37,82.06,2.48,82.04,2.61,81.99z"/>
		<path class="st0" d="M3.38,64.17c-0.06,0.31-0.07,0.53-0.04,0.64c0.06,0.16,0.23,0.27,0.53,0.33l0.8,0.16
			c0.16,0.03,0.29,0.03,0.37,0.01c0.09-0.03,0.15-0.13,0.19-0.31c0.08-0.42-0.03-0.66-0.33-0.71l-0.18-0.04
			c-0.06,0-0.13-0.01-0.22-0.03c-0.4-0.08-0.55-0.35-0.46-0.81c0.09-0.48,0.38-0.68,0.87-0.58c0.13,0.03,0.28,0.06,0.44,0.11
			c0.3,0.1,0.59,0.18,0.86,0.23c0.25,0.05,0.56,0.09,0.95,0.13s0.66,0.07,0.81,0.1c0.56,0.11,0.79,0.42,0.69,0.92
			c-0.09,0.47-0.38,0.66-0.87,0.57L7.7,64.85c-0.05-0.01-0.16-0.04-0.34-0.09c-0.23-0.04-0.38,0.14-0.46,0.54
			c-0.05,0.28,0.07,0.44,0.37,0.5l1.07,0.21c0.33,0.06,0.57,0.05,0.71-0.05c0.14-0.1,0.24-0.3,0.31-0.63l0.16-0.83
			c0.12-0.61,0.15-1.04,0.09-1.3c-0.06-0.26-0.22-0.42-0.48-0.47c-0.13-0.03-0.29-0.04-0.48-0.05c-0.19-0.01-0.35-0.02-0.47-0.05
			c-0.35-0.07-0.61-0.22-0.77-0.46s-0.21-0.53-0.14-0.87c0.14-0.69,0.58-0.96,1.34-0.82c0.25,0.05,0.5,0.11,0.77,0.2
			c0.45,0.14,0.73,0.22,0.84,0.24c0.1,0.02,0.31,0.04,0.63,0.05c0.19,0.01,0.37,0.03,0.56,0.07c0.45,0.09,0.61,0.41,0.5,0.97
			c-0.04,0.18-0.11,0.48-0.22,0.89c-0.18,0.68-0.43,1.78-0.75,3.3l-0.25,1.27c-0.09,0.47-0.16,0.87-0.19,1.19l-0.11,1.1
			c0,0.01,0,0.03,0,0.06c-0.01,0.03-0.01,0.05-0.01,0.07c-0.06,0.29-0.2,0.51-0.44,0.66c-0.24,0.15-0.51,0.19-0.81,0.13
			c-0.27-0.05-0.47-0.17-0.63-0.35c-0.15-0.18-0.21-0.39-0.16-0.62c0.01-0.08,0.05-0.19,0.12-0.33c0.06-0.14,0.1-0.25,0.11-0.32
			c0.05-0.26-0.25-0.45-0.89-0.57l-3.94-0.77c-0.63-0.12-0.98-0.06-1.03,0.2c-0.01,0.06-0.01,0.17-0.01,0.35
			c0,0.13,0,0.24-0.02,0.34c-0.04,0.22-0.17,0.38-0.38,0.5c-0.21,0.12-0.45,0.15-0.71,0.1c-0.69-0.14-0.97-0.55-0.83-1.24
			c0.03-0.16,0.12-0.49,0.25-0.97c0.2-0.73,0.37-1.44,0.51-2.13c0.01-0.07,0.11-0.64,0.29-1.72c0.13-0.78,0.21-1.3,0.24-1.55
			c0.05-0.41,0.12-0.84,0.21-1.29c0.1-0.53,0.39-0.75,0.85-0.66c0.15,0.03,0.37,0.09,0.66,0.18c0.29,0.09,0.51,0.15,0.66,0.18
			c0.15,0.03,0.37,0.05,0.66,0.06c0.29,0.01,0.5,0.03,0.65,0.06c0.28,0.05,0.49,0.2,0.64,0.44s0.19,0.51,0.14,0.82
			c-0.14,0.71-0.58,1-1.3,0.85c-0.12-0.02-0.29-0.08-0.5-0.16c-0.21-0.09-0.37-0.14-0.47-0.16c-0.21-0.04-0.36,0.04-0.45,0.25
			c-0.03,0.07-0.08,0.27-0.15,0.59L3.38,64.17z"/>
		<path class="st0" d="M7.49,48.08l6.71,0.15l-3.93-1.72c-0.59-0.26-0.94-0.27-1.04-0.04c-0.03,0.06-0.05,0.16-0.07,0.29
			c-0.02,0.13-0.04,0.23-0.07,0.29C9,47.24,8.85,47.36,8.63,47.41c-0.23,0.05-0.46,0.03-0.71-0.08c-0.29-0.13-0.49-0.31-0.59-0.56
			s-0.1-0.51,0.03-0.78c0.06-0.14,0.19-0.38,0.39-0.7s0.35-0.62,0.47-0.89c0.1-0.24,0.21-0.52,0.31-0.86
			c0.16-0.5,0.26-0.81,0.31-0.92c0.12-0.28,0.31-0.47,0.57-0.58c0.25-0.1,0.53-0.08,0.82,0.04c0.25,0.11,0.43,0.27,0.53,0.49
			c0.11,0.22,0.11,0.43,0.03,0.63c-0.03,0.08-0.1,0.18-0.19,0.3c-0.09,0.12-0.15,0.21-0.18,0.29c-0.08,0.18-0.02,0.34,0.18,0.49
			c0.08,0.06,0.26,0.15,0.55,0.27l5.41,2.37c0.58,0.26,0.77,0.62,0.56,1.1c-0.04,0.09-0.1,0.22-0.2,0.4s-0.16,0.31-0.2,0.4
			c0,0.01-0.09,0.23-0.26,0.66l-0.13,0.29c-0.11,0.25-0.26,0.42-0.44,0.49c-0.1,0.04-0.34,0.06-0.7,0.06l-6.97,0.01l4.01,1.76
			c0.6,0.26,0.95,0.28,1.05,0.05c0.03-0.06,0.05-0.16,0.08-0.31c0.03-0.14,0.05-0.24,0.08-0.3c0.08-0.19,0.23-0.31,0.46-0.36
			s0.46-0.03,0.71,0.08c0.65,0.28,0.83,0.73,0.56,1.35c-0.08,0.18-0.23,0.46-0.46,0.84c-0.16,0.26-0.29,0.53-0.41,0.8
			c-0.1,0.23-0.21,0.55-0.34,0.96c-0.13,0.41-0.21,0.67-0.26,0.77c-0.28,0.65-0.75,0.83-1.39,0.55c-0.25-0.11-0.43-0.27-0.53-0.48
			c-0.11-0.21-0.12-0.42-0.03-0.62c0.04-0.08,0.1-0.18,0.19-0.31c0.09-0.12,0.15-0.22,0.18-0.29c0.11-0.24-0.14-0.49-0.75-0.75
			l-3.68-1.61c-0.59-0.26-0.94-0.27-1.05-0.03c-0.03,0.07-0.06,0.18-0.09,0.33S6.48,53,6.44,53.08c-0.09,0.21-0.25,0.34-0.48,0.4
			s-0.47,0.04-0.71-0.07c-0.29-0.13-0.49-0.32-0.59-0.57c-0.1-0.25-0.09-0.52,0.04-0.81c0.08-0.19,0.22-0.45,0.42-0.78
			c0.2-0.34,0.34-0.6,0.43-0.81c0.07-0.17,0.18-0.46,0.33-0.89c0.07-0.19,0.15-0.41,0.23-0.66c0.03-0.12,0.07-0.23,0.12-0.36
			c0.1-0.24,0.28-0.38,0.52-0.44C6.85,48.08,7.1,48.08,7.49,48.08z"/>
		<path class="st0" d="M14.6,33.14c0.59-0.82,1.37-1.31,2.32-1.45c-0.41-0.4-0.47-0.81-0.18-1.21c0.35-0.49,0.76-0.56,1.23-0.22
			c0.08,0.06,0.22,0.19,0.44,0.39c0.32,0.3,0.54,0.5,0.67,0.59c0.14,0.1,0.25,0.17,0.33,0.21c0.26,0.17,0.41,0.26,0.44,0.28
			c0.2,0.15,0.31,0.36,0.32,0.64c0.01,0.28-0.09,0.56-0.3,0.84c-0.33,0.45-0.75,0.57-1.26,0.34s-0.92-0.32-1.22-0.26
			c-0.29,0.05-0.58,0.27-0.86,0.66c-0.37,0.51-0.42,1.08-0.14,1.69c0.27,0.62,0.84,1.25,1.71,1.88c0.74,0.53,1.41,0.81,2.01,0.84
			c0.61,0.03,1.08-0.2,1.43-0.67c0.22-0.3,0.32-0.62,0.28-0.95c-0.03-0.33-0.18-0.59-0.45-0.78c-0.33-0.24-0.59-0.22-0.79,0.05
			c-0.01,0.02-0.03,0.04-0.05,0.07c-0.02,0.04-0.03,0.07-0.05,0.09c-0.07,0.14-0.12,0.21-0.13,0.23c-0.11,0.16-0.28,0.24-0.49,0.25
			c-0.22,0.01-0.43-0.06-0.63-0.21c-0.24-0.17-0.37-0.38-0.39-0.64s0.05-0.51,0.23-0.76c0.12-0.17,0.32-0.4,0.6-0.7
			c0.28-0.3,0.49-0.54,0.61-0.71c0.19-0.26,0.37-0.56,0.56-0.9c0.15-0.27,0.26-0.46,0.33-0.55c0.18-0.25,0.4-0.4,0.67-0.44
			c0.26-0.04,0.52,0.03,0.78,0.22c0.23,0.17,0.38,0.36,0.45,0.58c0.07,0.22,0.05,0.41-0.07,0.58l-0.23,0.27
			c-0.15,0.21-0.05,0.45,0.3,0.7c0.15,0.11,0.31,0.22,0.48,0.33l0.52,0.34c0.18,0.12,0.35,0.23,0.5,0.35
			c0.53,0.38,0.58,0.86,0.16,1.44c-0.4,0.55-0.79,0.68-1.17,0.41l-0.07-0.05c0.04,0.85-0.19,1.62-0.69,2.31
			c-0.44,0.6-1.01,1.06-1.71,1.36c-0.7,0.3-1.4,0.39-2.08,0.27c-0.88-0.16-1.75-0.55-2.61-1.17c-1.32-0.95-2.14-2.01-2.46-3.18
			S13.84,34.19,14.6,33.14z"/>
		<path class="st0" d="M31.25,24.97l-1.43,1.3c-0.41,0.37-0.39,0.8,0.05,1.29c0.1,0.11,0.22,0.12,0.34,0.01
			c0.04-0.03,0.08-0.09,0.15-0.16c0.06-0.08,0.11-0.13,0.15-0.16c0.27-0.24,0.59-0.15,0.97,0.27c0.21,0.23,0.32,0.47,0.32,0.72
			c0.01,0.25-0.09,0.47-0.29,0.65c-0.1,0.09-0.35,0.27-0.73,0.53c-0.17,0.11-0.39,0.3-0.66,0.54c-0.29,0.26-0.51,0.48-0.66,0.65
			c-0.33,0.39-0.54,0.62-0.61,0.69c-0.22,0.2-0.46,0.3-0.73,0.29s-0.5-0.12-0.7-0.35c-0.45-0.5-0.49-0.92-0.11-1.27
			c0.04-0.04,0.12-0.1,0.22-0.17s0.18-0.13,0.22-0.17c0.13-0.12,0.18-0.3,0.13-0.53c-0.02-0.06-0.09-0.24-0.21-0.53l-2.35-5.56
			c-0.26-0.64-0.34-1.11-0.24-1.43c0.09-0.22,0.4-0.58,0.93-1.06c0.6-0.55,1.01-0.85,1.24-0.92c0.23-0.07,0.54,0.03,0.96,0.28
			l5.52,3.33c0.44,0.27,0.73,0.34,0.87,0.21c0.04-0.04,0.11-0.12,0.2-0.24l0.12-0.11c0.4-0.36,0.82-0.31,1.25,0.16
			c0.21,0.24,0.31,0.49,0.3,0.76c-0.01,0.27-0.13,0.51-0.36,0.72c-0.1,0.09-0.24,0.2-0.43,0.33c-0.23,0.15-0.38,0.25-0.45,0.31
			c-0.17,0.13-0.38,0.31-0.63,0.53c-0.27,0.25-0.45,0.42-0.53,0.52c-0.31,0.39-0.52,0.62-0.61,0.71c-0.19,0.18-0.42,0.25-0.68,0.21
			c-0.26-0.03-0.49-0.16-0.69-0.38c-0.38-0.42-0.44-0.76-0.17-1c0.04-0.03,0.09-0.08,0.17-0.13c0.08-0.05,0.14-0.1,0.18-0.13
			c0.14-0.12,0.14-0.26,0-0.41c-0.17-0.19-0.36-0.32-0.56-0.38C31.53,24.83,31.38,24.86,31.25,24.97z M29.6,23.47l-2.51-1.73
			l1.41,2.89c0.01,0.03,0.03,0.06,0.06,0.08c0.08,0.09,0.21,0.05,0.39-0.11l0.67-0.6c0.19-0.17,0.23-0.3,0.14-0.4
			C29.76,23.6,29.71,23.56,29.6,23.47z"/>
	</g>
</g>
</svg>
