<?xml version="1.0" encoding="utf-8"?>
<!-- Generator: Adobe Illustrator 26.4.1, SVG Export Plug-In . SVG Version: 6.00 Build 0)  -->
<svg version="1.1" id="Layer_1" xmlns="http://www.w3.org/2000/svg" xmlns:xlink="http://www.w3.org/1999/xlink" x="0px" y="0px"
	 viewBox="0 0 91.87 99.41" style="enable-background:new 0 0 91.87 99.41;" xml:space="preserve">
<style type="text/css">
	.st0{fill:#F7931E;}
</style>
<g>
	<g>
		<path class="st0" d="M87.49,57.4H4.38C1.96,57.4,0,55.43,0,53.02s1.96-4.38,4.38-4.38h83.11c2.42,0,4.38,1.96,4.38,4.38
			S89.9,57.4,87.49,57.4z M4.38,50.13c-1.59,0-2.88,1.29-2.88,2.88s1.29,2.88,2.88,2.88h83.11c1.59,0,2.88-1.29,2.88-2.88
			s-1.29-2.88-2.88-2.88H4.38z"/>
		<path class="st0" d="M50.07,10.01l1.34-9.79L49.77,0l-1.21,9.85c0.42-0.02,0.84,0.01,1.26,0.09C49.9,9.96,49.99,9.98,50.07,10.01z
			"/>
		<path class="st0" d="M46.65,25.35l-0.26,2.08c0.43-0.01,0.87,0.05,1.28,0.18l0.29-2.12c-0.37,0.01-0.74-0.02-1.11-0.09
			C46.78,25.39,46.72,25.37,46.65,25.35z"/>
		<path class="st0" d="M47.85,26.24c-0.41,0-0.78-0.03-1.14-0.1c-0.06-0.01-0.12-0.03-0.18-0.04c-3.88-0.9-6.2-5.19-5.32-9.79
			c0.77-4.03,3.85-7.06,7.32-7.2c0.49-0.02,0.97,0.01,1.43,0.1c0.07,0.01,0.15,0.03,0.22,0.05l-0.11,0.75l0.18-0.73
			c3.79,0.92,6.08,5.21,5.2,9.76c-0.79,4.12-3.94,7.15-7.48,7.2C47.93,26.24,47.89,26.24,47.85,26.24z M48.8,10.59
			c-0.07,0-0.14,0-0.21,0c-2.78,0.12-5.26,2.64-5.91,5.99c-0.72,3.74,1.14,7.34,4.14,8.04l0.12,0.03c0.35,0.07,0.65,0.1,1.01,0.09
			c2.84-0.04,5.38-2.56,6.03-5.99c0.72-3.76-1.07-7.29-4.08-8.02l-0.22-0.06C49.39,10.62,49.1,10.59,48.8,10.59z"/>
		<path class="st0" d="M39.14,99.41l-1.31-0.17l2.88-23.45l0.52,0.09c0.18,0.03,0.37,0.05,0.54,0.04l0.58,0L39.14,99.41z"/>
		<path class="st0" d="M47.1,76.07c-4.35,0-8.51-1.16-11.96-3.21l-0.41,0.15c-2.85,1.04-4.58,1.04-7.71,1.04
			c-10.86,0-19.77-6.07-20.74-14.13l-0.1-0.84h78.48l-0.1,0.84c-0.96,8.05-9.88,14.13-20.74,14.13c-1.82,0-3.61-0.18-5.33-0.52
			l-1.24,0.5C54.37,75.21,50.09,76.07,47.1,76.07z M27.75,62.49l2.41,3.67c3.4,5.19,9.9,8.41,16.94,8.41c2.2,0,5.15-0.49,7.64-1.24
			c-3.21-1.27-5.17-2.67-6.71-4.7l-4.12-5.47l5.21,4.44c3.69,3.14,9.05,4.95,14.71,4.95c9.54,0,17.72-5.19,19.11-11.96H7.91
			c1.39,6.77,9.56,11.96,19.11,11.96c2.47,0,3.94,0,5.79-0.5c-1.66-1.21-3.36-2.67-4.01-5.3L27.75,62.49z"/>
		<path class="st0" d="M84.67,46.44H6.19l0.1-0.84c0.96-8.05,9.88-14.13,20.74-14.13c1.82,0,3.61,0.18,5.33,0.52l1.24-0.5
			c2.9-1.18,7.17-2.03,10.16-2.03c4.35,0,8.51,1.16,11.96,3.21l0.41-0.15c2.85-1.04,4.58-1.04,7.71-1.04
			c10.86,0,19.77,6.07,20.74,14.13L84.67,46.44z M7.91,44.94h75.03c-1.39-6.77-9.56-11.97-19.11-11.97c-2.47,0-3.94,0-5.79,0.5
			c1.67,1.21,3.36,2.67,4.01,5.3l1.05,4.26l-2.41-3.67c-3.4-5.19-9.9-8.41-16.94-8.41c-2.2,0-5.15,0.49-7.64,1.24
			c3.21,1.27,5.17,2.67,6.71,4.7l4.12,5.47l-5.21-4.44c-3.69-3.14-9.05-4.95-14.71-4.95C17.48,32.97,9.3,38.16,7.91,44.94z"/>
	</g>
</g>
</svg>
